<?xml version="1.0" encoding="UTF-8" standalone="no"?>
<!-- Generator: Adobe Illustrator 18.1.1, SVG Export Plug-In . SVG Version: 6.00 Build 0)  -->

<svg
   xmlns:dc="http://purl.org/dc/elements/1.1/"
   xmlns:cc="http://creativecommons.org/ns#"
   xmlns:rdf="http://www.w3.org/1999/02/22-rdf-syntax-ns#"
   xmlns:svg="http://www.w3.org/2000/svg"
   xmlns="http://www.w3.org/2000/svg"
   xmlns:sodipodi="http://sodipodi.sourceforge.net/DTD/sodipodi-0.dtd"
   xmlns:inkscape="http://www.inkscape.org/namespaces/inkscape"
   version="1.1"
   id="Download"
   x="0px"
   y="0px"
   viewBox="0 0 20 20"
   enable-background="new 0 0 20 20"
   xml:space="preserve"
   inkscape:version="0.91 r13725"
   sodipodi:docname="download_edit.svg"
   inkscape:export-filename="C:\Users\Michael\Documents\ArchiveTool\drop_large.png"
   inkscape:export-xdpi="288"
   inkscape:export-ydpi="288"><metadata
     id="metadata9"><rdf:RDF><cc:Work
         rdf:about=""><dc:format>image/svg+xml</dc:format><dc:type
           rdf:resource="http://purl.org/dc/dcmitype/StillImage" /><dc:title></dc:title></cc:Work></rdf:RDF></metadata><defs
     id="defs7" /><sodipodi:namedview
     pagecolor="#ffffff"
     bordercolor="#666666"
     borderopacity="1"
     objecttolerance="10"
     gridtolerance="10"
     guidetolerance="10"
     inkscape:pageopacity="0"
     inkscape:pageshadow="2"
     inkscape:window-width="1920"
     inkscape:window-height="1017"
     id="namedview5"
     showgrid="false"
     inkscape:zoom="11.8"
     inkscape:cx="16.755254"
     inkscape:cy="-0.029905768"
     inkscape:window-x="-8"
     inkscape:window-y="-8"
     inkscape:window-maximized="1"
     inkscape:current-layer="Download" /><path
     d="M15,7h-3V1H8v6H5l5,5L15,7z M19.338,13.532c-0.21-0.224-1.611-1.723-2.011-2.114C17.062,11.159,16.683,11,16.285,11h-1.757  l3.064,2.994h-3.544c-0.102,0-0.194,0.052-0.24,0.133L12.992,16H7.008l-0.816-1.873c-0.046-0.081-0.139-0.133-0.24-0.133H2.408  L5.471,11H3.715c-0.397,0-0.776,0.159-1.042,0.418c-0.4,0.392-1.801,1.891-2.011,2.114c-0.489,0.521-0.758,0.936-0.63,1.449  l0.561,3.074c0.128,0.514,0.691,0.936,1.252,0.936h16.312c0.561,0,1.124-0.422,1.252-0.936l0.561-3.074  C20.096,14.468,19.828,14.053,19.338,13.532z"
     id="path3"
     inkscape:export-filename="C:\Users\Michael\Documents\ArchiveTool\drop_large_text.png"
     inkscape:export-xdpi="288"
     inkscape:export-ydpi="288" /><text
     xml:space="preserve"
     style="font-style:normal;font-weight:normal;font-size:7.5px;line-height:125%;font-family:sans-serif;text-align:center;letter-spacing:0px;word-spacing:0px;text-anchor:middle;fill:#000000;fill-opacity:1;stroke:none;stroke-width:1px;stroke-linecap:butt;stroke-linejoin:miter;stroke-opacity:1"
     x="9.9044828"
     y="23.728813"
     id="text4137"
     sodipodi:linespacing="125%"
     inkscape:export-filename="C:\Users\Michael\Documents\ArchiveTool\drop_large_text.png"
     inkscape:export-xdpi="288"
     inkscape:export-ydpi="288"><tspan
       sodipodi:role="line"
       x="9.9044828"
       y="23.728813"
       id="tspan4141"
       style="font-style:normal;font-variant:normal;font-weight:normal;font-stretch:normal;font-size:3.75px;font-family:'Segoe UI';-inkscape-font-specification:'Segoe UI'">Drag files here</tspan></text>
</svg>