<?xml version="1.0" encoding="UTF-8" standalone="no"?>
<!-- Generator: Adobe Illustrator 18.1.0, SVG Export Plug-In . SVG Version: 6.00 Build 0)  -->

<svg
   xmlns:dc="http://purl.org/dc/elements/1.1/"
   xmlns:cc="http://creativecommons.org/ns#"
   xmlns:rdf="http://www.w3.org/1999/02/22-rdf-syntax-ns#"
   xmlns:svg="http://www.w3.org/2000/svg"
   xmlns="http://www.w3.org/2000/svg"
   xmlns:sodipodi="http://sodipodi.sourceforge.net/DTD/sodipodi-0.dtd"
   xmlns:inkscape="http://www.inkscape.org/namespaces/inkscape"
   version="1.1"
   id="Folder"
   x="0px"
   y="0px"
   viewBox="0 0 20 20"
   enable-background="new 0 0 20 20"
   xml:space="preserve"
   inkscape:version="0.91 r13725"
   sodipodi:docname="folder.svg"
   inkscape:export-filename="C:\Users\Michael\Documents\ArchiveTool\img\folder.png"
   inkscape:export-xdpi="144"
   inkscape:export-ydpi="144"><metadata
     id="metadata9"><rdf:RDF><cc:Work
         rdf:about=""><dc:format>image/svg+xml</dc:format><dc:type
           rdf:resource="http://purl.org/dc/dcmitype/StillImage" /><dc:title></dc:title></cc:Work></rdf:RDF></metadata><defs
     id="defs7" /><sodipodi:namedview
     pagecolor="#ffffff"
     bordercolor="#666666"
     borderopacity="1"
     objecttolerance="10"
     gridtolerance="10"
     guidetolerance="10"
     inkscape:pageopacity="0"
     inkscape:pageshadow="2"
     inkscape:window-width="1920"
     inkscape:window-height="1017"
     id="namedview5"
     showgrid="false"
     inkscape:zoom="11.8"
     inkscape:cx="10"
     inkscape:cy="10"
     inkscape:window-x="-8"
     inkscape:window-y="-8"
     inkscape:window-maximized="1"
     inkscape:current-layer="Folder" /><path
     d="M18.405,4.799C18.294,4.359,17.75,4,17.195,4h-6.814C9.827,4,9.051,3.682,8.659,3.293L8.063,2.705  C7.671,2.316,6.896,2,6.342,2H3.087C2.532,2,2.028,2.447,1.967,2.994L1.675,6h16.931L18.405,4.799z M19.412,7H0.588  c-0.342,0-0.61,0.294-0.577,0.635l0.923,9.669C0.971,17.698,1.303,18,1.7,18H18.3c0.397,0,0.728-0.302,0.766-0.696l0.923-9.669  C20.022,7.294,19.754,7,19.412,7z"
     id="path3"
     style="fill:#4d4d4d" /></svg>